# xmcd
#
# Track frame offsets: 
#        150
#        18186
#        43661
#        61532
#        104495
#        133070
#        151904
#        180485
#        195154
#        228152
#
# Disc length: 3265 seconds
#
# Revision: 0
# Processed by: cddbd v1.5.2PL0 Copyright (c) Steve Scherf et al.
# Submitted via: ExactAudioCopyFreeDBPlugin 1.0
#
DISCID=6e0cbf0a
DTITLE=Ginda Bestari - Soulful Desire
DYEAR=2015
DGENRE=Blues
TTITLE0=Keep It Real
TTITLE1=Time Will Tell
TTITLE2=You Gotta Let Me Know
TTITLE3=Long Way
TTITLE4=Ginda Bestari feat. Yura Yunita - Make You Feel Alright
TTITLE5=Free Your Mind
TTITLE6=Beauty of the Broken Heart
TTITLE7=Brown Kitty
TTITLE8=Night Turns to Blue
TTITLE9=Yellow on Black
EXTD=
EXTT0=
EXTT1=
EXTT2=
EXTT3=
EXTT4=
EXTT5=
EXTT6=
EXTT7=
EXTT8=
EXTT9=
PLAYORDER=
